<?xml version="1.0" encoding="utf-8"?>
<!-- Generator: Adobe Illustrator 15.1.0, SVG Export Plug-In . SVG Version: 6.00 Build 0)  -->
<!DOCTYPE svg PUBLIC "-//W3C//DTD SVG 1.1//EN" "http://www.w3.org/Graphics/SVG/1.1/DTD/svg11.dtd">
<svg version="1.1" id="Layer_1" xmlns="http://www.w3.org/2000/svg" xmlns:xlink="http://www.w3.org/1999/xlink" x="0px" y="0px"
	 width="397.535px" height="131.57px" viewBox="0 0 397.535 131.57" enable-background="new 0 0 397.535 131.57"
	 xml:space="preserve">
<path fill="#1EA0DB" d="M68.746,90.395c0-28.407-33.375-75.613-33.375-75.613S1,61.988,1,90.395
	c0,18.707,15.166,33.873,33.874,33.873C53.581,124.268,68.746,109.102,68.746,90.395z"/>
<path fill="#006A9A" d="M80.768,16.691h20.409v28.528h26.883V16.691h20.409v78.345H128.06v-32.26h-26.883v32.26H80.768V16.691z"/>
<path fill="#006A9A" d="M158.564,55.644c0.329-7.461,3.84-12.289,8.888-15.252c5.047-2.854,11.631-3.95,18.105-3.95
	c13.496,0,26.554,2.963,26.554,19.093v24.907c0,4.828,0,10.095,2.193,14.594h-18.763c-0.658-1.756-0.878-3.512-1.097-5.377
	c-4.828,5.048-11.96,7.022-18.763,7.022c-10.863,0-19.421-5.486-19.421-17.228c0-18.544,20.189-17.117,33.137-19.751
	c3.182-0.658,4.938-1.755,4.938-5.267c0-4.279-5.157-5.926-8.998-5.926c-5.157,0-8.449,2.305-9.327,7.133L158.564,55.644
	L158.564,55.644z M182.704,85.161c8.888,0,11.851-5.048,11.412-16.788c-2.633,1.646-7.461,1.976-11.521,3.072
	c-4.169,0.987-7.681,2.743-7.681,7.241C174.913,83.296,178.534,85.161,182.704,85.161z"/>
<path fill="#006A9A" d="M220.669,38.088h18.104v9.985h0.22c2.743-7.242,9.106-11.082,17.116-11.082c1.428,0,2.964,0.109,4.391,0.438
	v17.008c-2.414-0.658-4.609-1.099-7.133-1.099c-9.217,0-14.045,6.364-14.045,13.497v28.199h-18.653V38.088L220.669,38.088z"/>
<path fill="#006A9A" d="M267.412,38.088h18.105v9.985h0.219c2.742-7.242,9.106-11.082,17.117-11.082
	c1.426,0,2.963,0.109,4.389,0.438v17.008c-2.414-0.658-4.607-1.099-7.133-1.099c-9.217,0-14.045,6.364-14.045,13.497v28.199h-18.652
	V38.088z"/>
<path fill="#006A9A" d="M332.808,30.956h-18.652V16.691h18.652V30.956L332.808,30.956z M314.154,38.088h18.652v56.948h-18.652
	V38.088z"/>
<path fill="#006A9A" d="M358.266,76.273c0,2.853,1.207,4.938,3.072,6.362c1.755,1.317,4.279,1.977,6.912,1.977
	c3.621,0,8.778-1.536,8.778-6.035c0-4.389-5.815-5.267-9.107-6.035c-11.741-2.962-26.444-3.291-26.444-18.652
	c0-13.717,14.813-17.446,26.007-17.446c12.508,0,25.565,3.621,26.225,18.434H376.48c0-2.413-0.879-3.949-2.414-4.938
	c-1.536-0.987-3.62-1.426-5.926-1.426c-3.071,0-8.01,0.328-8.01,4.278c0,5.376,12.508,6.363,21.066,8.229
	c11.521,2.304,14.483,10.643,14.483,15.36c0,15.252-14.483,20.3-27.321,20.3c-13.496,0-27.321-4.498-27.87-20.408H358.266
	L358.266,76.273z"/>
<path fill="#006A9A" d="M81.948,103.631h12.191c5.201,0,7.917,2.386,7.917,6.791c0,4.438-2.716,7.388-7.685,7.388H85.46v9.475
	h-3.512V103.631z M93.907,114.76c3.479,0,4.638-1.889,4.638-4.272c0-2.253-1.325-3.811-4.008-3.811H85.46v8.083H93.907z"/>
<path fill="#006A9A" d="M117.593,103.034c9.507,0,13.151,6.36,13.151,12.423c0,6.063-3.644,12.423-13.151,12.423
	c-9.507,0-13.151-6.359-13.151-12.423C104.442,109.394,108.085,103.034,117.593,103.034z M117.593,106.082
	c-5.399,0-9.64,3.114-9.64,9.375s4.24,9.375,9.64,9.375c5.4,0,9.64-3.114,9.64-9.375S122.993,106.082,117.593,106.082z"/>
<path fill="#006A9A" d="M146.414,103.034c9.507,0,13.151,6.36,13.151,12.423c0,6.063-3.644,12.423-13.151,12.423
	s-13.151-6.359-13.151-12.423C133.263,109.394,136.907,103.034,146.414,103.034z M146.414,106.082c-5.399,0-9.64,3.114-9.64,9.375
	s4.24,9.375,9.64,9.375s9.64-3.114,9.64-9.375S151.814,106.082,146.414,106.082z"/>
<path fill="#006A9A" d="M163.508,103.631h3.512v20.604h14.377v3.048h-17.889V103.631z"/>
<path fill="#006A9A" d="M195.444,103.631h12.191c5.201,0,7.917,2.386,7.917,6.791c0,4.438-2.716,7.388-7.685,7.388h-8.912v9.475
	h-3.512L195.444,103.631L195.444,103.631z M207.402,114.76c3.479,0,4.639-1.889,4.639-4.272c0-2.253-1.326-3.811-4.009-3.811h-9.077
	v8.083H207.402z"/>
<path fill="#006A9A" d="M219.361,103.631h14.643c4.737,0,6.46,3.279,6.46,6.294c0,2.883-1.392,5.002-3.976,5.83v0.066
	c2.088,0.298,3.312,2.253,3.445,5.035c0.198,4.406,0.332,5.499,1.127,6.427h-3.711c-0.562-0.662-0.562-1.656-0.729-4.505
	c-0.231-4.24-1.656-5.532-4.571-5.532h-9.177v10.037h-3.513v-23.652H219.361z M232.68,114.198c3.444,0,4.272-2.087,4.272-3.743
	c0-2.253-1.358-3.775-4.175-3.775h-9.904v7.52L232.68,114.198L232.68,114.198z"/>
<path fill="#006A9A" d="M256.232,103.034c9.508,0,13.151,6.36,13.151,12.423c0,6.063-3.645,12.423-13.151,12.423
	c-9.508,0-13.15-6.359-13.15-12.423C243.082,109.394,246.727,103.034,256.232,103.034z M256.232,106.082
	c-5.399,0-9.641,3.114-9.641,9.375s4.24,9.375,9.641,9.375c5.399,0,9.641-3.114,9.641-9.375S261.633,106.082,256.232,106.082z"/>
<path fill="#006A9A" d="M273.195,103.631h11.99c7.09,0,10.336,4.639,10.336,11.495c0,6.592-2.881,12.157-10.138,12.157h-12.188
	V103.631z M285.221,124.235c5.764,0,6.79-4.836,6.79-9.043c0-4.175-1.358-8.515-7.454-8.515h-7.851v17.558H285.221z"/>
<path fill="#006A9A" d="M299.498,103.631h3.512v15.14c0,4.272,2.85,6.062,7.188,6.062s7.188-1.789,7.188-6.062v-15.14h3.513v14.708
	c0,6.327-3.513,9.541-10.7,9.541c-7.188,0-10.7-3.214-10.7-9.541V103.631L299.498,103.631z"/>
<path fill="#006A9A" d="M345.38,112.144c-0.53-3.28-3.114-6.062-8.083-6.062c-5.599,0-9.144,3.213-9.144,9.673
	c0,4.474,2.419,9.077,8.943,9.077c4.142,0,7.288-1.988,8.282-6.593h3.511c-0.562,5.234-5.067,9.641-11.825,9.641
	c-5.964,0-12.423-3.279-12.423-12.488c0-6.892,4.308-12.356,12.39-12.356c4.736,0,11.264,2.021,11.858,9.11L345.38,112.144
	L345.38,112.144z"/>
<path fill="#006A9A" d="M359.36,106.677h-8.944v-3.048h21.399v3.048h-8.943v20.604h-3.512V106.677z"/>
<path fill="#006A9A" d="M375.891,119.498c0.066,4.24,4.042,5.334,7.62,5.334c3.743,0,6.394-1.425,6.394-4.009
	c0-2.153-1.689-3.048-4.405-3.511l-5.367-0.896c-2.814-0.464-7.021-1.591-7.021-6.194c0-4.308,3.411-7.188,9.475-7.188
	c4.737,0,9.739,1.723,10.07,7.421h-3.513c-0.298-1.854-1.357-4.373-7.021-4.373c-2.584,0-5.499,1.093-5.499,3.876
	c0,1.457,0.96,2.617,3.876,3.114l5.797,0.993c1.855,0.331,7.122,1.226,7.122,6.062c0,6.029-5.399,7.752-10.17,7.752
	c-5.333,0-10.865-1.854-10.865-8.382L375.891,119.498L375.891,119.498z"/>
<text transform="matrix(1 0 0 1 374.6006 30.6184)" fill="#016A99" font-family="'HelveticaNeue'" font-size="12">TM</text>
</svg>
